<?xml version="1.0" encoding="UTF-8"?> <svg xmlns="http://www.w3.org/2000/svg" xmlns:xlink="http://www.w3.org/1999/xlink" version="1.1" id="Layer_1" x="0px" y="0px" viewBox="0 0 162.4 185.8" style="enable-background:new 0 0 162.4 185.8;" xml:space="preserve"> <style type="text/css"> .st0{fill:#FFFFFF;} </style> <path class="st0" d="M154.5,112.2c-16.1-7.9-26.9-5.2-31.6-1.7c-3.8,2.5-4.4,5.4-11.8,7.2c-1.5,0.4-3.3,0.7-5.1,0.9 c-0.9-27.9-1.3-64.4,1.2-109.1c0.6-8.3-0.5-9.2-1.9-9.5c-1.2-0.2-4.1,0-7.6,8.6c-5.5,13.8-9.1,45.7-9.1,80.4c0,3.3,2.3,3.2,5.8,5.1 s4.1,12.2,3.7,25.2c-22.2,1.1-56.7-2.7-77.2-3.9c-0.2-8.7,0.3-17,1.8-24.1c0.9-3.9,1.7-5.4,5.2-9.4c3.9-4.4,4.6-8.9,4.3-15 c-0.4-9-1.4-21.7-3.4-35l-0.1-0.3c0-0.2-0.2-0.3-0.3-0.3H28c-0.2,0-0.3,0.1-0.3,0.3V32c-0.1,0.9-0.1,22.4-0.2,32.5 c0,0.9,0,2.1-1.3,2.1s-1.8-0.9-1.9-2c-0.4-10.1-1.3-28.9-1.6-32.7v-0.3c0-0.2-0.2-0.3-0.4-0.3H22c-0.2,0-0.3,0.1-0.3,0.3v0.3 c-0.3,3.8-0.7,23.4-1.2,33.4c0,0.8-0.5,1.8-1.6,1.8h-0.1c-1.2,0-1.6-1-1.6-1.8c-0.4-10-0.8-29.6-1.2-33.4v-0.3 c0-0.2-0.1-0.3-0.3-0.3h-0.4c-0.2,0-0.4,0.1-0.4,0.3v0.3c-0.3,3.8-1.1,22.6-1.6,32.7c0,1.1-0.6,2-1.9,2s-1.3-1.2-1.3-2.1 C10,54.4,10,32.9,9.9,32v-0.4c0-0.2-0.2-0.3-0.3-0.3H9.2c-0.2,0-0.3,0.1-0.3,0.3v0.3c-2.1,13.2-3,26-3.4,35 c-0.3,6.1,0.4,10.6,4.3,15c3.5,4,4.3,5.4,5.2,9.4c1.6,7.1,2,15.3,1.9,23.9c-1.1,0-2.2-0.1-3.3-0.1c-10.6-0.2-12.3,3-13.4,4.9 c-0.2,0.4-0.3,1.5,0,2c1,1.9,2.7,5.2,13.3,5.1c0.9,0,1.8,0,2.8,0c-1,15.6-3.1,31.7-3.4,44.8c-0.2,11.5,2.9,12.6,5,13.7 c0.3,0.2,0.7,0.2,1.1,0.2s0.7,0,1.1-0.2c2.1-1.1,5.2-2.2,5-13.7c-0.2-13.1-2.3-29.3-3.4-45c20.5-0.9,54.3-4.3,76.5-3 c-0.8,15.9-2.7,34.5-2.7,46.4c0,12.9,3.2,15.5,6.7,15.5c3.6,0,5.9-6.4,5.9-15.5c0-10.1-0.9-25.4-1.6-45.6c1.7,0.2,3.3,0.5,4.8,0.9 c7.4,1.9,8,4.7,11.8,7.2c4.7,3.6,15.4,6.4,31.6-1.3c5-2.4,7.7-6.6,7.7-9.5C162.2,119.1,159.5,114.7,154.5,112.2z"></path> </svg> 